<svg width="14" height="15" viewBox="0 0 14 15" fill="none" xmlns="http://www.w3.org/2000/svg">
<path d="M12.25 6.3335C12.25 10.4168 7 13.9168 7 13.9168C7 13.9168 1.75 10.4168 1.75 6.3335C1.75 4.94111 2.30312 3.60575 3.28769 2.62119C4.27226 1.63662 5.60761 1.0835 7 1.0835C8.39239 1.0835 9.72774 1.63662 10.7123 2.62119C11.6969 3.60575 12.25 4.94111 12.25 6.3335Z" stroke="#163B54" stroke-width="1.5" stroke-linecap="round" stroke-linejoin="round"/>
<path d="M7 8.0835C7.9665 8.0835 8.75 7.29999 8.75 6.3335C8.75 5.367 7.9665 4.5835 7 4.5835C6.0335 4.5835 5.25 5.367 5.25 6.3335C5.25 7.29999 6.0335 8.0835 7 8.0835Z" stroke="#163B54" stroke-width="1.5" stroke-linecap="round" stroke-linejoin="round"/>
</svg>
