<svg width="25" height="24" viewBox="0 0 25 24" fill="none" xmlns="http://www.w3.org/2000/svg">
<path d="M16.7262 8C18.3175 8 19.8436 8.63214 20.9688 9.75736C22.0941 10.8826 22.7262 12.4087 22.7262 14V21H18.7262V14C18.7262 13.4696 18.5155 12.9609 18.1404 12.5858C17.7653 12.2107 17.2566 12 16.7262 12C16.1958 12 15.6871 12.2107 15.312 12.5858C14.9369 12.9609 14.7262 13.4696 14.7262 14V21H10.7262V14C10.7262 12.4087 11.3583 10.8826 12.4836 9.75736C13.6088 8.63214 15.1349 8 16.7262 8Z" fill="white"/>
<path d="M6.7262 9H2.7262V21H6.7262V9Z" fill="white"/>
<path d="M4.7262 6C5.83077 6 6.7262 5.10457 6.7262 4C6.7262 2.89543 5.83077 2 4.7262 2C3.62163 2 2.7262 2.89543 2.7262 4C2.7262 5.10457 3.62163 6 4.7262 6Z" fill="white"/>
</svg>
