<svg width="25" height="24" viewBox="0 0 25 24" fill="none" xmlns="http://www.w3.org/2000/svg">
<path d="M17.7262 2H7.72618C4.96476 2 2.72618 4.23858 2.72618 7V17C2.72618 19.7614 4.96476 22 7.72618 22H17.7262C20.4876 22 22.7262 19.7614 22.7262 17V7C22.7262 4.23858 20.4876 2 17.7262 2Z" stroke="white" stroke-width="2" stroke-linecap="round" stroke-linejoin="round"/>
<path d="M16.7262 11.3698C16.8496 12.2021 16.7074 13.052 16.3199 13.7988C15.9324 14.5456 15.3193 15.1512 14.5678 15.5295C13.8163 15.9077 12.9646 16.0394 12.134 15.9057C11.3033 15.7721 10.5359 15.3799 9.94102 14.785C9.3461 14.1901 8.95391 13.4227 8.82025 12.592C8.68658 11.7614 8.81824 10.9097 9.1965 10.1582C9.57477 9.40667 10.1804 8.79355 10.9272 8.40605C11.674 8.01856 12.5239 7.8764 13.3562 7.99981C14.2051 8.1257 14.991 8.52128 15.5979 9.12812C16.2047 9.73496 16.6003 10.5209 16.7262 11.3698Z" stroke="white" stroke-width="2" stroke-linecap="round" stroke-linejoin="round"/>
<path d="M18.2262 6.5H18.2362" stroke="white" stroke-width="2" stroke-linecap="round" stroke-linejoin="round"/>
</svg>
