<svg width="25" height="24" viewBox="0 0 25 24" fill="none" xmlns="http://www.w3.org/2000/svg">
<path d="M23.7262 2.9998C22.7686 3.67528 21.7083 4.19191 20.5862 4.5298C19.9839 3.83731 19.1835 3.34649 18.2932 3.12373C17.4029 2.90096 16.4657 2.957 15.6083 3.28426C14.7509 3.61151 14.0146 4.1942 13.4992 4.95352C12.9837 5.71283 12.7139 6.61214 12.7262 7.5298V8.5298C10.9688 8.57537 9.22747 8.18561 7.65721 7.39525C6.08694 6.60488 4.73651 5.43844 3.7262 3.9998C3.7262 3.9998 -0.273804 12.9998 8.7262 16.9998C6.66672 18.3978 4.21335 19.0987 1.7262 18.9998C10.7262 23.9998 21.7262 18.9998 21.7262 7.4998C21.7253 7.22126 21.6985 6.9434 21.6462 6.6698C22.6668 5.6633 23.387 4.39251 23.7262 2.9998Z" fill="white"/>
</svg>
