<svg width="19" height="7" viewBox="0 0 19 7" fill="none" xmlns="http://www.w3.org/2000/svg">
<path d="M1.78125 0C1.30883 0 0.855765 0.187667 0.521716 0.521716C0.187667 0.855765 0 1.30883 0 1.78125L0 4.15625H7.125C7.28247 4.15625 7.4335 4.21881 7.54484 4.33016C7.65619 4.4415 7.71875 4.59253 7.71875 4.75C7.71875 5.05044 7.81375 5.51475 8.08213 5.88763C8.32794 6.22963 8.74356 6.53125 9.5 6.53125C10.2564 6.53125 10.6721 6.22963 10.9179 5.88763C11.1863 5.51475 11.2812 5.05044 11.2812 4.75C11.2812 4.59253 11.3438 4.4415 11.4552 4.33016C11.5665 4.21881 11.7175 4.15625 11.875 4.15625H19V1.78125C19 1.30883 18.8123 0.855765 18.4783 0.521716C18.1442 0.187667 17.6912 0 17.2188 0H1.78125Z" fill="white"/>
</svg>
